<?xml version="1.0" encoding="UTF-8" standalone="no"?>
<svg width="94px" height="147px" viewBox="0 0 94 147" version="1.1" xmlns="http://www.w3.org/2000/svg" xmlns:xlink="http://www.w3.org/1999/xlink">
    <!-- Generator: Sketch 40.1 (33804) - http://www.bohemiancoding.com/sketch -->
    <title>2</title>
    <desc>Created with Sketch.</desc>
    <defs></defs>
    <g id="Page-1" stroke="none" stroke-width="1" fill="none" fill-rule="evenodd">
        <g id="STEPS" transform="translate(-549.000000, 0.000000)" fill="#94BEF9">
            <g id="Group-14" transform="translate(549.000000, 0.000000)">
                <path d="M93.8,43.2 C93.8,49.466698 92.833343,54.766645 90.9,59.1 C88.966657,63.433355 86.133352,67.93331 82.4,72.6 L38,129.2 L92.8,129.2 L92.8,147 L0,147 L46,86.2 C50.133354,80.86664 53.86665,76.000022 57.2,71.6 C58.53334,69.733324 59.899993,67.900009 61.3,66.1 C62.700007,64.299991 63.933328,62.633341 65,61.1 C66.066672,59.566659 66.966663,58.333338 67.7,57.4 C68.433337,56.466662 68.866666,55.866668 69,55.6 C71.266678,51.733314 72.4,47.600022 72.4,43.2 C72.4,39.733316 71.73334,36.466682 70.4,33.4 C69.06666,30.333318 67.233345,27.666678 64.9,25.4 C62.566655,23.133322 59.866682,21.33334 56.8,20 C53.733318,18.66666 50.466684,18 47,18 C43.533316,18 40.266682,18.66666 37.2,20 C34.133318,21.33334 31.466678,23.133322 29.2,25.4 C26.933322,27.666678 25.13334,30.333318 23.8,33.4 C22.46666,36.466682 21.8,39.733316 21.8,43.2 L1,43.2 C1,37.333304 2.233321,31.766693 4.7,26.5 C7.166679,21.233307 10.499979,16.633353 14.7,12.7 C18.900021,8.766647 23.799972,5.666678 29.4,3.4 C35.000028,1.133322 40.999968,0 47.4,0 C53.800032,0 59.799972,1.133322 65.4,3.4 C71.000028,5.666678 75.899979,8.766647 80.1,12.7 C84.300021,16.633353 87.633321,21.233307 90.1,26.5 C92.566679,31.766693 93.8,37.333304 93.8,43.2 L93.8,43.2 Z" id="2"></path>
            </g>
        </g>
    </g>
</svg>