<?xml version="1.0" encoding="UTF-8" standalone="no"?>
<svg width="76px" height="76px" viewBox="0 0 76 76" version="1.1" xmlns="http://www.w3.org/2000/svg" xmlns:xlink="http://www.w3.org/1999/xlink">
    <!-- Generator: Sketch 40.1 (33804) - http://www.bohemiancoding.com/sketch -->
    <title>Shape</title>
    <desc>Created with Sketch.</desc>
    <defs></defs>
    <g id="Page-1" stroke="none" stroke-width="1" fill="none" fill-rule="evenodd">
        <g id="Artboard-Copy-16" transform="translate(-1254.000000, -1147.000000)" fill="#FFFFFF">
            <g id="Value-props" transform="translate(187.000000, 1015.000000)">
                <g id="Group-7-Copy-4" transform="translate(930.000000, 0.000000)">
                    <path d="M206.171875,207.99932 L143.828125,207.99932 C140.061523,207.99932 137,204.937797 137,201.171195 L137.232008,195.697562 C142.919094,183.720437 151.73257,181.173695 152.103664,181.067117 L152.734523,180.983547 L157.187648,180.983547 C160.787258,180.983547 163.718898,178.051906 163.718898,174.452297 L163.718898,172.334687 C161.956203,170.071015 160.648023,167.619422 159.817813,165.033344 L159.65082,164.499859 C156.937234,162.034461 156.259914,158.033476 157.976297,154.921039 C158.022758,154.816687 158.147891,154.612586 158.291727,154.399133 L158.277773,151.845562 C158.273172,150.131555 158.273172,148.422148 158.296328,146.71289 C158.430813,143.463445 159.312234,140.59682 160.842922,138.356305 C162.652078,135.649695 165.676492,133.58775 169.127664,132.71568 C172.504617,131.857562 176.220305,131.76939 179.847672,132.460515 C183.094742,133.079797 185.877945,134.527062 187.886453,136.649273 C190.261453,139.158758 191.620398,142.830359 191.713172,146.988836 C191.727273,148.858258 191.722523,150.695172 191.722523,152.532086 L191.717922,154.415461 C191.787539,154.515211 191.838602,154.605609 191.889516,154.696156 C193.684719,157.55818 193.2115,161.672719 190.729773,164.154445 L190.340125,164.513961 C189.366078,167.59864 188.016336,170.196594 186.28125,172.430133 L186.28125,174.452594 C186.28125,178.052203 189.212891,180.983844 192.8125,180.983844 L197.896484,181.067265 C198.267578,181.173992 207.081055,183.720586 212.768141,195.697562 L213,196.71807 L213,201.171195 C213,204.937797 209.938477,207.99932 206.171875,207.99932 L206.171875,207.99932 Z M141.75,197.260758 L141.75,201.171195 C141.75,202.316984 142.682336,203.24932 143.828125,203.24932 L206.171875,203.24932 C207.317664,203.24932 208.25,202.316984 208.25,201.171195 L208.25,197.260758 C204.01493,188.702445 198.179406,186.197562 196.88993,185.733695 L192.8125,185.733695 C186.592078,185.733695 181.53125,180.672719 181.53125,174.452445 L181.53125,170.72043 L182.087891,170.057062 C183.780969,168.048555 185.061242,165.627094 185.896203,162.86482 C186.044641,161.946289 186.828539,161.271492 187.204234,160.949086 C188.298961,159.865937 188.489109,158.212195 187.797984,157.103664 C187.468602,156.628219 186.916562,155.858125 186.972375,154.763398 L186.972375,152.525258 C186.972375,150.702297 186.976977,148.879187 186.963023,147.058601 C186.898008,144.115383 185.99818,141.566414 184.435133,139.915047 C182.769664,138.154726 180.538648,137.426344 178.956898,137.127242 C176.002102,136.559023 173.005445,136.630867 170.291859,137.319765 C167.963172,137.908914 165.954664,139.254055 164.776516,141.014523 C163.737453,142.540609 163.143703,144.551492 163.041578,146.847672 C163.023023,148.466531 163.023023,150.150406 163.027625,151.836508 L163.027625,154.742617 C163.157508,155.702859 162.554406,156.581906 162.262281,157.003914 C161.478383,158.409469 161.793813,160.135055 162.828273,160.983969 C163.756008,161.61943 164.085391,162.728109 164.261586,163.324234 C165.064039,165.847672 166.270094,168.000015 167.916859,169.973789 L168.468898,170.637156 L168.468898,174.452445 C168.468898,180.672867 163.40807,185.733695 157.187648,185.733695 L153.110219,185.733695 C151.806641,186.202015 145.980469,188.702445 141.75,197.260758 L141.75,197.260758 Z" id="Shape"></path>
                </g>
            </g>
        </g>
    </g>
</svg>