<?xml version="1.0" encoding="UTF-8" standalone="no"?>
<svg width="38px" height="62px" viewBox="0 0 38 62" version="1.1" xmlns="http://www.w3.org/2000/svg" xmlns:xlink="http://www.w3.org/1999/xlink">
    <!-- Generator: Sketch 40.1 (33804) - http://www.bohemiancoding.com/sketch -->
    <title>hourglass (1)</title>
    <desc>Created with Sketch.</desc>
    <defs></defs>
    <g id="Page-1" stroke="none" stroke-width="1" fill="none" fill-rule="evenodd">
        <g id="Artboard-Copy-16" transform="translate(-808.000000, -1156.000000)" fill="#FFFFFF">
            <g id="Value-props" transform="translate(187.000000, 1015.000000)">
                <g id="Group-7-Copy-3" transform="translate(465.000000, 0.000000)">
                    <g id="hourglass-(1)" transform="translate(175.376154, 172.376154) rotate(-45.000000) translate(-175.376154, -172.376154) translate(141.876154, 138.876154)">
                        <path d="M66.1812627,23.0808163 L43.9525458,0.806734694 C42.901833,-0.246122449 41.0596741,-0.246122449 40.0089613,0.806734694 L37.0478615,3.77387755 C30.8118126,10.0226531 28.3556008,19.43 30.0885947,30.0132653 C27.8916497,29.6577551 25.7356415,29.4663265 23.6478615,29.4663265 C15.6378819,29.4663265 8.81507128,32.0642857 3.91629328,36.9730612 L0.955193483,39.9402041 C-0.57311609,41.5946939 0.382077393,43.3722449 0.955193483,43.8918367 L23.1839104,66.1659184 C24.6167006,67.5742857 26.4997963,66.8632653 27.1274949,66.1659184 L30.0885947,63.1987755 C36.3246436,56.95 38.7808554,47.5426531 37.0478615,36.9593878 C39.2448065,37.314898 41.4008147,37.5063265 43.4885947,37.5063265 C51.4985743,37.5063265 58.3213849,34.9083673 63.2201629,29.9995918 L66.1812627,27.032449 C67.2729124,25.9385714 67.2729124,24.1610204 66.1812627,23.0808163 L66.1812627,23.0808163 Z M60.2712665,26.3380102 C56.1539894,30.4541878 50.2930967,32.6367873 43.3039822,32.6367873 C40.7105372,32.6367873 38.0145265,32.3291726 35.2306025,31.7285916 C33.0034633,21.4454717 34.9229056,12.3928107 40.6226238,6.70926293 L41.6922367,5.63993566 L61.3262272,25.2686829 L60.2712665,26.3380102 L60.2712665,26.3380102 Z M6.38980981,40.9300908 C10.5070869,36.8139132 16.3679796,34.6313137 23.3570941,34.6313137 C25.9505391,34.6313137 28.6465498,34.9389284 31.4304738,35.5395095 C33.657613,45.8226293 31.7381706,54.8752904 26.0384525,60.5588381 L24.9688396,61.6281654 L5.33484913,41.9994181 L6.38980981,40.9300908 L6.38980981,40.9300908 Z" id="Shape"></path>
                    </g>
                </g>
            </g>
        </g>
    </g>
</svg>