<?xml version="1.0" encoding="UTF-8" standalone="no"?>
<svg width="99px" height="148px" viewBox="0 0 99 148" version="1.1" xmlns="http://www.w3.org/2000/svg" xmlns:xlink="http://www.w3.org/1999/xlink">
    <!-- Generator: Sketch 40.1 (33804) - http://www.bohemiancoding.com/sketch -->
    <title>3</title>
    <desc>Created with Sketch.</desc>
    <defs></defs>
    <g id="Page-1" stroke="none" stroke-width="1" fill="none" fill-rule="evenodd">
        <g id="STEPS" transform="translate(-1382.000000, -339.000000)" fill="#94BEF9">
            <g id="Group-15" transform="translate(1382.000000, 257.000000)">
                <path d="M76.4,140.1 C83.0667,144.500022 88.366647,150.266631 92.3,157.4 C96.233353,164.533369 98.2,172.366624 98.2,180.9 C98.2,187.700034 96.933346,194.066637 94.4,200 C91.866654,205.933363 88.400022,211.099978 84,215.5 C79.599978,219.900022 74.433363,223.366654 68.5,225.9 C62.566637,228.433346 56.200034,229.7 49.4,229.7 C40.199954,229.7 31.666706,227.300024 23.8,222.5 C17.533302,218.633314 12.366687,213.566698 8.3,207.3 C4.233313,201.033302 1.733338,194.033372 0.8,186.3 L19.6,186.3 L20.2,186.3 C20.2,187.900008 20.399998,189.36666 20.8,190.7 C21.866672,193.900016 23.433323,196.83332 25.5,199.5 C27.566677,202.16668 29.999986,204.433324 32.8,206.3 C37.866692,209.500016 43.39997,211.1 49.4,211.1 C53.533354,211.1 57.466648,210.300008 61.2,208.7 C64.933352,207.099992 68.166653,204.96668 70.9,202.3 C73.633347,199.63332 75.799992,196.466685 77.4,192.8 C79.000008,189.133315 79.8,185.166688 79.8,180.9 C79.8,176.766646 79.000008,172.833352 77.4,169.1 C75.799992,165.366648 73.633347,162.133347 70.9,159.4 C68.166653,156.666653 64.933352,154.500008 61.2,152.9 C57.466648,151.299992 53.533354,150.5 49.4,150.5 C44.866644,150.5 40.333356,151.566656 35.8,153.7 L43.6,136.1 L45.4,132.1 L59.4,100.3 L8.8,100.3 L8.8,82.9 L88.2,82.9 L64.8,134.5 C69.066688,135.966674 72.933316,137.833322 76.4,140.1 L76.4,140.1 Z" id="3"></path>
            </g>
        </g>
    </g>
</svg>