<?xml version="1.0" encoding="UTF-8" standalone="no"?>
<svg width="53px" height="85px" viewBox="0 0 53 85" version="1.1" xmlns="http://www.w3.org/2000/svg" xmlns:xlink="http://www.w3.org/1999/xlink">
    <!-- Generator: Sketch 40.1 (33804) - http://www.bohemiancoding.com/sketch -->
    <title>Shape</title>
    <desc>Created with Sketch.</desc>
    <defs></defs>
    <g id="Page-1" stroke="none" stroke-width="1" fill="none" fill-rule="evenodd">
        <g id="Artboard-Copy-16" transform="translate(-329.000000, -1140.000000)" fill="#FFFFFF">
            <g id="Value-props" transform="translate(187.000000, 1015.000000)">
                <g id="Group-7">
                    <path d="M194.660634,158.167232 C194.192247,157.330984 193.308472,156.812865 192.349669,156.812865 L174.030219,156.812865 L176.440891,127.871774 C176.541756,126.660234 175.805553,125.535517 174.655288,125.143324 C173.510156,124.74848 172.235672,125.190049 171.575656,126.211374 L142.425988,171.279103 C141.897975,172.094639 141.857894,173.13386 142.322472,173.986842 C142.78705,174.839825 143.679769,175.37037 144.650166,175.37037 L162.987834,175.37037 L160.557784,206.979932 C160.463378,208.20191 161.218959,209.329444 162.384794,209.706228 C162.653934,209.792885 162.928209,209.834474 163.2,209.834474 C164.103153,209.834474 164.970034,209.369873 165.461775,208.565936 L194.611444,160.846969 C195.110969,160.028947 195.130347,159.00348 194.660634,158.167232 L194.660634,158.167232 Z M166.687234,196.389893 L168.492216,172.922934 C168.549191,172.186433 168.295619,171.460039 167.794769,170.917563 C167.292759,170.376579 166.587528,170.068226 165.85,170.068226 L149.521859,170.068226 L170.280469,137.972524 L168.509109,159.244396 C168.448325,159.983548 168.698088,160.713255 169.200097,161.259542 C169.702106,161.804669 170.408497,162.11501 171.15,162.11501 L187.624388,162.11501 L166.687234,196.389893 L166.687234,196.389893 Z" id="Shape"></path>
                </g>
            </g>
        </g>
    </g>
</svg>