<?xml version="1.0" encoding="UTF-8" standalone="no"?>
<svg width="33px" height="37px" viewBox="0 0 33 37" version="1.1" xmlns="http://www.w3.org/2000/svg" xmlns:xlink="http://www.w3.org/1999/xlink">
    <!-- Generator: Sketch 40.1 (33804) - http://www.bohemiancoding.com/sketch -->
    <title>drop copy 3</title>
    <desc>Created with Sketch.</desc>
    <defs></defs>
    <g id="Page-1" stroke="none" stroke-width="1" fill="none" fill-rule="evenodd">
        <g id="Artboard-Copy-16" transform="translate(-58.000000, -62.000000)" fill="#FFFFFF">
            <g id="Group-6" transform="translate(58.000000, 53.000000)">
                <g id="drop-copy-3" transform="translate(0.000000, 9.000000)">
                    <path d="M18.0971009,1.0449099 L16.5597987,0 L15.004996,1.02428367 C14.3962518,1.4251966 0.0984834224,10.9725471 0.0984834224,22.1466202 C0.0984834224,30.2175904 7.4722152,36.7839149 16.5356068,36.7839149 C25.59917,36.7839149 32.9729018,30.2175904 32.9729018,22.1466202 C32.9729018,11.2810239 18.7046441,1.45774022 18.0971009,1.0449099 L18.0971009,1.0449099 Z M16.5356068,32.2003066 C10.3103908,32.2003066 5.24570062,27.6901888 5.24570062,22.1466202 C5.24570062,15.1784661 13.1015551,8.43399204 16.5148464,5.83294712 C19.9298534,8.49312059 27.8256846,15.3766307 27.8256846,22.1466202 C27.8256846,27.6901888 22.7609944,32.2003066 16.5356068,32.2003066 L16.5356068,32.2003066 Z" id="Shape"></path>
                </g>
            </g>
        </g>
    </g>
</svg>