<?xml version="1.0" encoding="UTF-8" standalone="no"?>
<svg width="333px" height="71px" viewBox="0 0 333 71" version="1.1" xmlns="http://www.w3.org/2000/svg" xmlns:xlink="http://www.w3.org/1999/xlink">
    <!-- Generator: Sketch 40.1 (33804) - http://www.bohemiancoding.com/sketch -->
    <title>Group 8</title>
    <desc>Created with Sketch.</desc>
    <defs></defs>
    <g id="Page-1" stroke="none" stroke-width="1" fill="none" fill-rule="evenodd">
        <g id="Artboard-Copy-16" transform="translate(-634.000000, -273.000000)" fill="#FFFFFF">
            <g id="Group-8" transform="translate(634.000000, 273.000000)">
                <g id="drop-copy-3" transform="translate(68.428554, 0.000000)">
                    <path d="M34.3452487,2.00509738 L31.4277081,0 L28.4769545,1.9655173 C27.3216605,2.73483673 0.186904944,21.0554282 0.186904944,42.4975684 C0.186904944,57.985106 14.1810056,70.5853502 31.3817959,70.5853502 C48.5829119,70.5853502 62.5770125,57.985106 62.5770125,42.4975684 C62.5770125,21.6473703 35.4982633,2.79728529 34.3452487,2.00509738 L34.3452487,2.00509738 Z M31.3817959,61.7897775 C19.5673846,61.7897775 9.95545601,53.1352272 9.95545601,42.4975684 C9.95545601,29.1262457 24.8645443,16.1841469 31.3423961,11.1929526 C37.8235041,16.2976098 52.8084615,29.5065076 52.8084615,42.4975684 C52.8084615,53.1352272 43.1965328,61.7897775 31.3817959,61.7897775 L31.3817959,61.7897775 Z" id="Shape"></path>
                </g>
                <path d="M48.3304678,24.9321897 C48.3932757,25.2854803 48.440381,25.6387656 48.471785,25.9920562 C48.5031889,26.3453468 48.5188907,26.7280725 48.5188907,27.1402449 L48.5188907,27.2285671 L48.5188907,27.3168893 C48.5188907,27.7290617 48.5031889,28.1117874 48.471785,28.465078 C48.440381,28.8183686 48.3932757,29.1716539 48.3304678,29.5249445 L48.3304678,29.6132667 L48.0478335,31.7329997 C47.9850256,31.7918815 47.9536221,31.9096433 47.9536221,32.0862886 C47.8908141,32.3806974 47.8280071,32.6456614 47.7651992,32.8811885 C47.7023912,33.1167155 47.6081807,33.3816795 47.4825649,33.6760883 C46.6032537,36.3846496 45.3000085,38.7987659 43.5727902,40.9185095 C41.8455718,43.0382531 39.7572392,44.83412 37.3077295,46.3061642 C35.2350675,47.4837995 32.9426121,48.4111735 30.4302945,49.0883138 C27.917977,49.7654541 25.2486796,50.1040192 22.4223223,50.1040192 L10.0806239,50.1040192 L10.0806239,69.2699385 L0,69.2699385 L0,4.35311501 L22.4223223,4.35311501 C28.0750369,4.35311501 33.0367896,5.61905401 37.3077295,8.15096999 C39.7572392,9.62301416 41.8455718,11.4188811 43.5727902,13.5386247 C45.3000085,15.6583683 46.6032537,18.0430441 47.4825649,20.6927236 C47.7337966,21.3404231 47.8908141,21.8997915 47.9536221,22.3708456 C47.9536221,22.5474909 47.9850256,22.6652527 48.0478335,22.7241344 C48.1106414,23.077425 48.1577467,23.4307103 48.1891506,23.7840009 C48.2205546,24.1372916 48.2676599,24.4611364 48.3304678,24.7555452 L48.3304678,24.9321897 Z M23.647071,41.8017316 C25.719733,41.8017316 27.6196447,41.3895654 29.346863,40.5652206 C31.0740813,39.7408759 32.5814493,38.6515795 33.869012,37.2972989 C35.1565748,35.9430183 36.1614868,34.3973951 36.8837781,32.6603829 C37.6060694,30.9233708 37.9672096,29.1127836 37.9672096,27.2285671 C37.9672096,25.3443506 37.6060694,23.5337634 36.8837781,21.7967513 C36.1614868,20.0597391 35.1565748,18.5141159 33.869012,17.1598353 C32.5814493,15.8055546 31.0740813,14.7162583 29.346863,13.8919136 C27.6196447,13.0675688 25.719733,12.6554026 23.647071,12.6554026 L10.1748353,12.6554026 L10.1748353,41.8017316 L23.647071,41.8017316 Z M181.545441,4.17647059 C186.318845,4.17647059 190.809545,5.0302434 195.017677,6.73781464 C199.225809,8.44538589 202.884317,10.7711808 205.99331,13.7152691 C209.102303,16.6593575 211.551776,20.1186094 213.341802,24.0931287 C215.131828,28.067648 216.026828,32.3217918 216.026828,36.8556879 C216.026828,41.3307021 215.131828,45.5406853 213.341802,49.4857637 C211.551776,53.4308421 209.102303,56.8753738 205.99331,59.8194622 C202.884317,62.7635505 199.225809,65.0893454 195.017677,66.7969167 C190.809545,68.5044879 186.318845,69.3582607 181.545441,69.3582607 C176.772038,69.3582607 172.297039,68.5044879 168.120311,66.7969167 C163.943584,65.0893454 160.300778,62.7635505 157.191785,59.8194622 C154.082792,56.8753738 151.633319,53.4308421 149.843292,49.4857637 C148.053266,45.5406853 147.158266,41.3307021 147.158266,36.8556879 C147.158266,32.3217918 148.053266,28.067648 149.843292,24.0931287 C151.633319,20.1186094 154.082792,16.6593575 157.191785,13.7152691 C160.300778,10.7711808 163.943584,8.44538589 168.120311,6.73781464 C172.297039,5.0302434 176.772038,4.17647059 181.545441,4.17647059 L181.545441,4.17647059 Z M181.545441,60.3493954 C184.811454,60.3493954 187.904699,59.7311461 190.825268,58.494629 C193.745837,57.2581119 196.289521,55.5800067 198.456395,53.4602631 C200.623269,51.3405195 202.334759,48.8528022 203.590918,45.9970365 C204.847077,43.1412708 205.475147,40.094185 205.475147,36.8556879 C205.475147,33.6171907 204.847077,30.5553847 203.590918,27.6701781 C202.334759,24.7849716 200.623269,22.2678138 198.456395,20.1186293 C196.289521,17.9694448 193.745837,16.2766194 190.825268,15.0401023 C187.904699,13.8035852 184.811454,13.1853359 181.545441,13.1853359 C178.279429,13.1853359 175.201886,13.8035852 172.31272,15.0401023 C169.423555,16.2766194 166.895574,17.9694448 164.7287,20.1186293 C162.561826,22.2678138 160.850335,24.7849716 159.594176,27.6701781 C158.338018,30.5553847 157.709948,33.6171907 157.709948,36.8556879 C157.709948,40.094185 158.338018,43.1412708 159.594176,45.9970365 C160.850335,48.8528022 162.561826,51.3405195 164.7287,53.4602631 C166.895574,55.5800067 169.423555,57.2581119 172.31272,58.494629 C175.201886,59.7311461 178.279429,60.3493954 181.545441,60.3493954 L181.545441,60.3493954 Z M240.992859,4.44143721 L240.992859,59.9961066 L269.162079,59.9961066 L269.162079,69.2699385 L230.912235,69.2699385 L230.912235,4.44143721 L240.992859,4.44143721 Z M331.530051,33.7644105 C330.65074,36.4140901 329.347495,38.7987659 327.620276,40.9185095 C325.893058,43.0382531 323.773322,44.83412 321.261004,46.3061642 C321.135388,46.4239277 320.978371,46.5122491 320.789947,46.5711308 C320.601523,46.6300126 320.444506,46.7183339 320.31889,46.8360975 L332.472165,69.2699385 L321.826273,69.2699385 L311.18038,49.7507303 C310.426685,49.8684939 309.673001,49.9568152 308.919306,50.015697 C308.165611,50.0745787 307.34912,50.1040192 306.469809,50.1040192 L294.12811,50.1040192 L294.12811,69.2699385 L284.047486,69.2699385 L284.047486,4.35311501 L306.469809,4.35311501 C309.296166,4.35311501 311.949761,4.69168009 314.430675,5.36882041 C316.911589,6.04596073 319.188342,6.97333465 321.261004,8.15096999 C326.348447,11.1539401 329.771429,15.3639233 331.530051,20.7810458 C331.592859,21.0754547 331.655666,21.3404187 331.718474,21.5759457 C331.781282,21.8114728 331.875492,22.0764368 332.001108,22.3708456 L332.001108,22.8124567 C332.126724,23.1068655 332.205233,23.4307103 332.236637,23.7840009 C332.268041,24.1372916 332.315146,24.4905769 332.377954,24.8438675 L332.377954,24.9321897 C332.440762,25.2854803 332.472165,25.6387656 332.472165,25.9920562 L332.472165,27.1402449 L332.472165,27.2285671 L332.472165,27.4052115 L332.472165,28.465078 C332.472165,28.8183686 332.440762,29.1716539 332.377954,29.5249445 L332.377954,29.7015889 C332.315146,30.0548795 332.268041,30.3934446 332.236637,30.7172943 C332.205233,31.0411441 332.126724,31.3797091 332.001108,31.7329997 L332.001108,32.0862886 C331.749877,32.733988 331.592859,33.2933564 331.530051,33.7644105 L331.530051,33.7644105 Z M307.694557,41.8017316 C309.767219,41.8017316 311.667131,41.3895654 313.394349,40.5652206 C315.121568,39.7408759 316.613234,38.6515795 317.869393,37.2972989 C319.125551,35.9430183 320.130463,34.3973951 320.884159,32.6603829 C321.637854,30.9233708 322.014696,29.1127836 322.014696,27.2285671 C322.014696,25.4032323 321.637854,23.6073654 320.884159,21.8409124 C320.130463,20.0744593 319.125551,18.5288361 317.869393,17.2039964 C316.613234,15.8791566 315.121568,14.8045805 313.394349,13.9802358 C311.667131,13.155891 309.767219,12.7437248 307.694557,12.7437248 L294.222322,12.7437248 L294.222322,41.8017316 L307.694557,41.8017316 Z" id="POOLR-Copy"></path>
            </g>
        </g>
    </g>
</svg>